<svg xmlns="http://www.w3.org/2000/svg" viewBox="0 0 200 280">
  <g stroke="#1a1714" stroke-width="14" stroke-linecap="round" stroke-linejoin="round" fill="none">
    <path d="M 100 21 A 79 79 0 0 1 179 100 V 180 A 79 79 0 0 1 100 259 A 79 79 0 0 1 21 180 V 100 A 79 79 0 0 1 100 21"/>
    <path d="M 21 107 V 180 A 79 79 0 0 0 179 180 V 107"/>
    <path d="M 21 21 V 180 A 79 79 0 0 0 100 259"/>
    <path d="M 100 101 A 79 79 0 0 1 179 180 A 79 79 0 0 1 100 259 A 79 79 0 0 1 21 180 A 79 79 0 0 1 100 101"/>
    <path d="M 179 180 V 259"/>
  </g>
</svg>
